<?xml version="1.0" encoding="UTF-8" standalone="no"?>
<!-- Created with Inkscape (http://www.inkscape.org/) -->

<svg
   width="32"
   height="32"
   viewBox="0 0 8.466666 8.466666"
   version="1.1"
   id="svg5"
   inkscape:version="1.1 (c68e22c387, 2021-05-23)"
   sodipodi:docname="start.svg"
   inkscape:export-filename="/home/bogdan/wfs-icon.png"
   inkscape:export-xdpi="96"
   inkscape:export-ydpi="96"
   xmlns:inkscape="http://www.inkscape.org/namespaces/inkscape"
   xmlns:sodipodi="http://sodipodi.sourceforge.net/DTD/sodipodi-0.dtd"
   xmlns="http://www.w3.org/2000/svg"
   xmlns:svg="http://www.w3.org/2000/svg"
   xmlns:rdf="http://www.w3.org/1999/02/22-rdf-syntax-ns#"
   xmlns:cc="http://creativecommons.org/ns#"
   xmlns:dc="http://purl.org/dc/elements/1.1/">
  <title
     id="title20912">WipeFreeSpace GUI start icon</title>
  <sodipodi:namedview
     id="namedview7"
     pagecolor="#ffffff"
     bordercolor="#666666"
     borderopacity="1.0"
     inkscape:pageshadow="2"
     inkscape:pageopacity="0.0"
     inkscape:pagecheckerboard="0"
     inkscape:document-units="px"
     showgrid="false"
     width="32px"
     inkscape:snap-bbox="true"
     inkscape:bbox-paths="true"
     inkscape:bbox-nodes="true"
     inkscape:snap-bbox-edge-midpoints="true"
     inkscape:snap-bbox-midpoints="true"
     inkscape:snap-intersection-paths="false"
     inkscape:object-paths="false"
     inkscape:snap-smooth-nodes="false"
     inkscape:snap-global="true"
     inkscape:lockguides="false"
     inkscape:object-nodes="true"
     inkscape:snap-nodes="true"
     inkscape:zoom="11.313708"
     inkscape:cx="-4.2868351"
     inkscape:cy="11.755651"
     inkscape:window-width="1366"
     inkscape:window-height="701"
     inkscape:window-x="0"
     inkscape:window-y="0"
     inkscape:window-maximized="1"
     inkscape:current-layer="layer1" />
  <defs
     id="defs2">
    <inkscape:path-effect
       effect="spiro"
       id="path-effect1525"
       is_visible="true"
       lpeversion="1" />
    <inkscape:path-effect
       effect="spiro"
       id="path-effect1422"
       is_visible="true"
       lpeversion="1" />
    <linearGradient
       id="linearGradient4358"
       inkscape:swatch="gradient">
      <stop
         style="stop-color:#0000ff;stop-opacity:1;"
         offset="0"
         id="stop4354" />
      <stop
         style="stop-color:#0000ff;stop-opacity:0;"
         offset="1"
         id="stop4356" />
    </linearGradient>
  </defs>
  <g
     inkscape:label="Warstwa 1"
     inkscape:groupmode="layer"
     id="layer1"
     style="display:inline">
    <g
       id="g1362"
       transform="translate(-1.5842458,0.08026262)">
      <rect
         style="fill:#cccccc;fill-opacity:1;stroke:#000000;stroke-width:0.132292;stroke-linecap:round;stroke-linejoin:round;stroke-miterlimit:4;stroke-dasharray:none;stroke-opacity:1"
         id="rect3288"
         width="3.8654814"
         height="6.0097628"
         x="2.1220284"
         y="1.3140782" />
      <ellipse
         style="fill:none;stroke:#000000;stroke-width:0.132292;stroke-miterlimit:4;stroke-dasharray:none;stroke-opacity:1"
         id="path1110"
         cx="4.0547686"
         cy="3.270216"
         rx="1.9327406"
         ry="1.9561373" />
      <path
         style="fill:none;stroke:#000000;stroke-width:0.276973px;stroke-linecap:butt;stroke-linejoin:miter;stroke-opacity:1"
         d="M 6.0195523,3.2362659 H 4.1649046 L 5.1211668,1.5864971"
         id="path1439" />
      <path
         style="fill:#00ff00;stroke:#000000;stroke-width:0.0529167;stroke-miterlimit:4;stroke-dasharray:none;stroke-opacity:1"
         d="m 4.6893187,2.4363409 0.440904,-0.7612273 0.087409,0.062994 C 5.610778,2.0214413 5.9188146,2.5504922 5.9563191,3.0067982 l 0.015679,0.19077 H 5.1102056 4.2484135 Z"
         id="path1595" />
      <path
         style="fill:none;fill-opacity:1;stroke:none;stroke-width:0.12451;stroke-opacity:1"
         d="M 3.6570446,5.1361846 C 3.4046738,5.078071 3.1389963,4.9488812 2.9080049,4.7719522 2.2103972,4.2376163 1.9759891,3.2480938 2.3587858,2.4534963 2.740274,1.6616146 3.6155539,1.2218224 4.4397741,1.4078854 c 0.2147831,0.048486 0.5402817,0.1795323 0.5402817,0.2175183 0,0.01004 -0.210353,0.3801594 -0.467451,0.8224883 C 4.2555067,2.8902208 4.045154,3.2603631 4.045154,3.2704303 c 0,0.010068 0.4207057,0.018305 0.9349018,0.018305 h 0.934902 L 5.9145461,3.4642438 C 5.9140374,3.6866186 5.784777,4.0708775 5.6322538,4.3034449 5.4911036,4.518671 5.187569,4.8083359 4.9757591,4.9299414 4.6077645,5.1412167 4.0545924,5.227731 3.6570363,5.1361855 Z"
         id="path1884" />
      <path
         style="fill:#e6e6e6;fill-opacity:1;stroke:#000000;stroke-width:0.132292;stroke-linecap:round;stroke-linejoin:round;stroke-miterlimit:4;stroke-dasharray:none;stroke-opacity:1"
         d="M 3.8063284,5.1721383 C 3.5635603,5.1412968 3.2608692,5.0295404 3.0445635,4.8908882 2.758358,4.7074305 2.4884873,4.4001934 2.3461952,4.0958252 2.0067334,3.3697038 2.1421831,2.5218485 2.6892347,1.9485481 2.9639825,1.6606179 3.2980814,1.4729785 3.6873752,1.3879652 3.7906651,1.365409 3.8391468,1.3619883 4.0555649,1.3619883 c 0.2736088,0 0.3643328,0.013229 0.5853009,0.085343 0.1109092,0.036196 0.409473,0.1793978 0.4018658,0.1927492 -0.00243,0.00426 -0.2120105,0.3659449 -0.4657347,0.8037333 -0.2537238,0.4377881 -0.4639174,0.8028388 -0.4670962,0.8112235 -0.00478,0.012606 0.1544442,0.015246 0.9197554,0.015246 h 0.9255358 l -0.00759,0.1003279 C 5.9301202,3.6015602 5.8864734,3.7940036 5.8061675,3.9942014 5.5868029,4.5410644 5.1102526,4.9675334 4.547444,5.1206447 4.3287537,5.1801389 4.031743,5.2007761 3.8063282,5.1721393 Z"
         id="path3837" />
      <ellipse
         style="fill:#000000;stroke:#000000;stroke-width:0.132292;stroke-miterlimit:4;stroke-dasharray:none;stroke-opacity:1"
         id="path4947"
         cx="2.4774165"
         cy="4.992177"
         rx="0.35538813"
         ry="0.35969028" />
      <path
         style="fill:#000000;stroke:#000000;stroke-width:0.132292;stroke-linecap:butt;stroke-linejoin:miter;stroke-miterlimit:4;stroke-dasharray:none;stroke-opacity:1"
         d="M 2.4951542,4.7244682 4.6235542,3.2816644 2.807199,5.1114987"
         id="path4982" />
      <path
         style="fill:#cccccc;stroke:none;stroke-width:0.132292;stroke-linecap:round;stroke-linejoin:round"
         d="m 2.8648476,5.3851804 v -8.825e-4 h 0.1559592 0.1559593 v 8.825e-4 8.825e-4 H 3.0208068 2.8648476 Z"
         id="path2965" />
      <rect
         style="fill:#999999;fill-opacity:1;stroke:#000000;stroke-width:0.132292;stroke-linecap:round;stroke-linejoin:round;stroke-miterlimit:4;stroke-dasharray:none;stroke-opacity:1;paint-order:normal"
         id="rect6429"
         width="3.7358499"
         height="1.4194338"
         x="2.1868441"
         y="5.9044075" />
    </g>
    <g
       id="g1340"
       transform="translate(-1.5842458,0.08026262)">
      <rect
         style="fill:#ff0000;fill-opacity:1;stroke:#000000;stroke-width:0.133847;stroke-linecap:round;stroke-linejoin:round;stroke-opacity:1;paint-order:normal"
         id="rect3818"
         width="0.90407211"
         height="0.49683195"
         x="5.568687"
         y="-1.0838704"
         transform="matrix(0.86340062,0.50451895,-0.49549459,0.86861102,0,0)" />
      <rect
         style="mix-blend-mode:normal;fill:#0000ff;fill-opacity:1;stroke:#000000;stroke-width:0.132295;stroke-linecap:round;stroke-linejoin:round;stroke-miterlimit:4;stroke-dasharray:none;stroke-opacity:1;paint-order:normal"
         id="rect3820"
         width="0.88270843"
         height="1.4647547"
         x="5.5793691"
         y="-2.5887053"
         transform="matrix(0.86340062,0.50451895,-0.49549459,0.86861102,0,0)" />
    </g>
    <path
       style="fill:#000000;stroke:#008000;stroke-width:0.79374994;stroke-linecap:round;stroke-linejoin:miter;stroke-opacity:1;stroke-miterlimit:4;stroke-dasharray:none"
       d="M 5.4332318,3.5855428 6.2418296,4.9860754"
       id="path1420"
       inkscape:path-effect="#path-effect1422"
       inkscape:original-d="M 5.4332318,3.5855428 C 5.703029,4.0526517 5.9725616,4.5194957 6.2418296,4.9860754" />
    <path
       style="fill:none;stroke:#008000;stroke-width:0.79374994;stroke-linecap:round;stroke-linejoin:miter;stroke-opacity:1;stroke-miterlimit:4;stroke-dasharray:none"
       d="M 6.2418296,4.9860754 7.8383171,2.2208776"
       id="path1523"
       inkscape:path-effect="#path-effect1525"
       inkscape:original-d="M 6.2418296,4.9860754 C 6.7742567,4.0646074 7.3064192,3.1428748 7.8383171,2.2208776" />
  </g>
  <metadata
     id="metadata20910">
    <rdf:RDF>
      <cc:Work
         rdf:about="">
        <dc:title>WipeFreeSpace GUI start icon</dc:title>
        <dc:description>WipeFreeSpace icon</dc:description>
        <dc:creator>
          <cc:Agent>
            <dc:title>Bogdan 'bogdro' Drozdowski</dc:title>
          </cc:Agent>
        </dc:creator>
      </cc:Work>
    </rdf:RDF>
  </metadata>
</svg>
