<?xml version="1.0" encoding="UTF-8" standalone="no"?>
<!-- Created with Inkscape (http://www.inkscape.org/) -->

<svg
   width="128"
   height="128"
   viewBox="0 0 33.866664 33.866664"
   version="1.1"
   id="svg5"
   inkscape:version="1.1 (c68e22c387, 2021-05-23)"
   sodipodi:docname="wfsgui-icon.svg"
   inkscape:export-filename="/home/bogdan/wfs-icon.png"
   inkscape:export-xdpi="96"
   inkscape:export-ydpi="96"
   xmlns:inkscape="http://www.inkscape.org/namespaces/inkscape"
   xmlns:sodipodi="http://sodipodi.sourceforge.net/DTD/sodipodi-0.dtd"
   xmlns="http://www.w3.org/2000/svg"
   xmlns:svg="http://www.w3.org/2000/svg"
   xmlns:rdf="http://www.w3.org/1999/02/22-rdf-syntax-ns#"
   xmlns:cc="http://creativecommons.org/ns#"
   xmlns:dc="http://purl.org/dc/elements/1.1/">
  <title
     id="title20912">WipeFreeSpace icon</title>
  <sodipodi:namedview
     id="namedview7"
     pagecolor="#ffffff"
     bordercolor="#666666"
     borderopacity="1.0"
     inkscape:pageshadow="2"
     inkscape:pageopacity="0.0"
     inkscape:pagecheckerboard="0"
     inkscape:document-units="px"
     showgrid="false"
     width="121px"
     inkscape:snap-bbox="true"
     inkscape:bbox-paths="true"
     inkscape:bbox-nodes="true"
     inkscape:snap-bbox-edge-midpoints="true"
     inkscape:snap-bbox-midpoints="true"
     inkscape:snap-intersection-paths="false"
     inkscape:object-paths="false"
     inkscape:snap-smooth-nodes="false"
     inkscape:snap-global="true"
     inkscape:lockguides="false"
     inkscape:object-nodes="true"
     inkscape:snap-nodes="true"
     inkscape:zoom="2.8284271"
     inkscape:cx="-39.774757"
     inkscape:cy="47.376155"
     inkscape:window-width="1366"
     inkscape:window-height="701"
     inkscape:window-x="0"
     inkscape:window-y="0"
     inkscape:window-maximized="1"
     inkscape:current-layer="layer1" />
  <defs
     id="defs2">
    <linearGradient
       id="linearGradient4358"
       inkscape:swatch="gradient">
      <stop
         style="stop-color:#0000ff;stop-opacity:1;"
         offset="0"
         id="stop4354" />
      <stop
         style="stop-color:#0000ff;stop-opacity:0;"
         offset="1"
         id="stop4356" />
    </linearGradient>
  </defs>
  <g
     inkscape:label="Warstwa 1"
     inkscape:groupmode="layer"
     id="layer1"
     style="display:inline">
    <g
       id="g1006">
      <rect
         style="fill:#cccccc;fill-opacity:1;stroke:#000000;stroke-width:0.264583;stroke-linecap:round;stroke-linejoin:round;stroke-miterlimit:4;stroke-dasharray:none;stroke-opacity:1"
         id="rect3288"
         width="15.958892"
         height="24.514933"
         x="9.148859"
         y="4.5043216" />
      <circle
         style="fill:none;stroke:#000000;stroke-width:0.264583;stroke-opacity:1"
         id="path1110"
         cx="17.128304"
         cy="12.483768"
         r="7.9794455" />
      <path
         style="fill:none;stroke:#000000;stroke-width:0.276973px;stroke-linecap:butt;stroke-linejoin:miter;stroke-opacity:1"
         d="M 25.240041,12.34528 H 17.583007 L 21.530998,5.6155684"
         id="path1439" />
      <path
         style="fill:#00ff00;stroke:#000000;stroke-width:0.12451;stroke-opacity:1"
         d="m 19.748085,9.0822383 1.820301,-3.1051869 0.360873,0.2569644 c 1.62313,1.1557702 2.894879,3.3138665 3.049719,5.1752232 l 0.06473,0.778186 h -3.557964 -3.557965 z"
         id="path1595" />
      <path
         style="fill:none;fill-opacity:1;stroke:none;stroke-width:0.12451;stroke-opacity:1"
         d="m 15.486274,20.095399 c -1.041929,-0.237056 -2.138796,-0.764045 -3.092459,-1.485771 -2.880119,-2.179655 -3.847888,-6.2161 -2.267487,-9.4574097 1.574999,-3.2302318 5.188649,-5.0242254 8.591496,-4.2652401 0.886746,0.1977834 2.230588,0.7323454 2.230588,0.8872973 0,0.040954 -0.868456,1.5507405 -1.929902,3.3550818 -1.061446,1.8043407 -1.929901,3.3142197 -1.929901,3.3552857 0,0.04107 1.736911,0.07467 3.859803,0.07467 h 3.859804 l -0.0017,0.715931 c -0.0021,0.907108 -0.53576,2.474571 -1.165462,3.423256 -0.582748,0.877947 -1.83591,2.059544 -2.710381,2.555595 -1.51929,0.861831 -3.803097,1.214739 -5.444433,0.841308 z"
         id="path1884" />
      <path
         style="fill:#e6e6e6;fill-opacity:1;stroke:#000000;stroke-width:0.264583;stroke-linecap:round;stroke-linejoin:round;stroke-miterlimit:4;stroke-dasharray:none;stroke-opacity:1"
         d="M 16.102602,20.242061 C 15.100318,20.116253 13.850638,19.660378 12.957606,19.09479 11.775988,18.346432 10.661809,17.093155 10.074347,15.851581 8.6728569,12.889598 9.2320696,9.4310394 11.490608,7.0924413 c 1.134314,-1.1745203 2.513663,-1.939936 4.120888,-2.2867211 0.426439,-0.092011 0.626599,-0.1059645 1.520095,-0.1059645 1.129612,0 1.504172,0.053962 2.416453,0.3481305 0.457896,0.1476504 1.690536,0.7317969 1.659129,0.7862595 -0.01003,0.017396 -0.875299,1.4927571 -1.922816,3.2785765 -1.047515,1.7858188 -1.915313,3.2749278 -1.928437,3.3091308 -0.01974,0.05142 0.637633,0.06219 3.79727,0.06219 h 3.821135 l -0.03135,0.409256 c -0.07216,0.942084 -0.252359,1.727096 -0.583907,2.54374 -0.905661,2.230755 -2.87313,3.970401 -5.196722,4.59497 -0.902877,0.242688 -2.129105,0.326871 -3.059745,0.210056 z"
         id="path3837" />
      <circle
         style="fill:#000000;stroke:#000000;stroke-width:0.264583;stroke-opacity:1"
         id="path4947"
         cx="10.616102"
         cy="19.507965"
         r="1.4672431" />
      <path
         style="fill:#000000;stroke:#000000;stroke-width:0.275361px;stroke-linecap:butt;stroke-linejoin:miter;stroke-opacity:1"
         d="m 10.689334,18.415932 8.787238,-5.885463 -7.498941,7.464232"
         id="path4982" />
      <path
         style="fill:#cccccc;stroke:none;stroke-width:0.132292;stroke-linecap:round;stroke-linejoin:round"
         d="m 12.215637,21.111099 v -0.0036 h 0.643888 0.643888 v 0.0036 0.0036 h -0.643888 -0.643888 z"
         id="path2965" />
      <rect
         style="opacity:1;fill:#999999;fill-opacity:1;stroke:#000000;stroke-width:0.264583;stroke-linecap:round;stroke-linejoin:round;stroke-miterlimit:4;stroke-dasharray:none;stroke-opacity:1;paint-order:normal"
         id="rect6429"
         width="15.423699"
         height="5.7901325"
         x="9.4164553"
         y="23.229122" />
    </g>
    <g
       id="g1011">
      <g
         id="g931"
         transform="translate(-16.256719,-1.6062092)">
        <rect
           style="fill:#ff0000;fill-opacity:1;stroke:#000000;stroke-width:0.133843;stroke-linecap:round;stroke-linejoin:round;stroke-opacity:1;paint-order:normal"
           id="rect3818"
           width="3.7212079"
           height="2.0327201"
           x="37.710773"
           y="-12.10717"
           transform="rotate(30)" />
        <rect
           style="mix-blend-mode:normal;fill:#0000ff;fill-opacity:1;stroke:#000000;stroke-width:0.264583;stroke-linecap:round;stroke-linejoin:round;stroke-miterlimit:4;stroke-dasharray:none;stroke-opacity:1;paint-order:normal"
           id="rect3820"
           width="3.6332738"
           height="5.9928436"
           x="37.754742"
           y="-18.263996"
           transform="rotate(30)" />
      </g>
    </g>
  </g>
  <metadata
     id="metadata20910">
    <rdf:RDF>
      <cc:Work
         rdf:about="">
        <dc:title>WipeFreeSpace icon</dc:title>
        <dc:description>WipeFreeSpace icon</dc:description>
        <dc:creator>
          <cc:Agent>
            <dc:title>Bogdan 'bogdro' Drozdowski</dc:title>
          </cc:Agent>
        </dc:creator>
      </cc:Work>
    </rdf:RDF>
  </metadata>
</svg>
